<svg width="20" height="20" viewBox="0 0 20 20" fill="none" xmlns="www.w3.org/2000/svg">
<g id="Icon">
<g id="vuesax/outline/arrow-right">
<g id="Vector">
<path d="M12.0248 15.6849C11.8665 15.6849 11.7082 15.6266 11.5832 15.5016C11.3415 15.2599 11.3415 14.8599 11.5832 14.6182L16.1998 10.0016L11.5832 5.3849C11.3415 5.14323 11.3415 4.74323 11.5832 4.50156C11.8248 4.2599 12.2248 4.2599 12.4665 4.50156L17.5248 9.5599C17.7665 9.80156 17.7665 10.2016 17.5248 10.4432L12.4665 15.5016C12.3415 15.6266 12.1832 15.6849 12.0248 15.6849Z" fill="#514EF3"/>
<path d="M16.9415 10.6266H2.9165C2.57484 10.6266 2.2915 10.3432 2.2915 10.0016C2.2915 9.6599 2.57484 9.37656 2.9165 9.37656H16.9415C17.2832 9.37656 17.5665 9.6599 17.5665 10.0016C17.5665 10.3432 17.2832 10.6266 16.9415 10.6266Z" fill="#514EF3"/>
</g>
</g>
</g>
</svg>
