<svg width="24" height="24" viewBox="0 0 24 24" fill="none" xmlns="http://www.w3.org/2000/svg">
<g id="majesticons:home">
<g id="Group">
<path id="Vector" fill-rule="evenodd" clip-rule="evenodd" d="M10.698 2.79825C11.0605 2.48733 11.5223 2.31641 12 2.31641C12.4776 2.31641 12.9394 2.48733 13.302 2.79825L19.638 8.22825L22.125 10.2183C22.2275 10.3003 22.3129 10.4018 22.3763 10.5169C22.4396 10.632 22.4797 10.7584 22.4941 10.8889C22.5086 11.0195 22.4973 11.1516 22.4607 11.2778C22.4241 11.404 22.363 11.5217 22.281 11.6243C22.1989 11.7268 22.0974 11.8122 21.9823 11.8756C21.8672 11.9389 21.7408 11.979 21.6103 11.9934C21.4797 12.0079 21.3476 11.9966 21.2214 11.96C21.0952 11.9234 20.9775 11.8623 20.875 11.7803L20 11.0803V18.9993C20 19.5297 19.7892 20.0384 19.4142 20.4135C19.0391 20.7885 18.5304 20.9993 18 20.9993H14V15.9993C14 15.4688 13.7892 14.9601 13.4142 14.585C13.0391 14.21 12.5304 13.9993 12 13.9993C11.4695 13.9993 10.9608 14.21 10.5857 14.585C10.2107 14.9601 9.99995 15.4688 9.99995 15.9993V20.9993H5.99995C5.46952 20.9993 4.96081 20.7885 4.58574 20.4135C4.21067 20.0384 3.99995 19.5297 3.99995 18.9993V11.0793L3.12495 11.7793C3.02309 11.8662 2.90478 11.9319 2.77707 11.9722C2.64935 12.0126 2.51482 12.0269 2.38146 12.0143C2.24811 12.0017 2.11865 11.9625 2.00076 11.8989C1.88287 11.8353 1.77897 11.7486 1.69521 11.6441C1.61145 11.5395 1.54954 11.4193 1.51316 11.2903C1.47679 11.1614 1.46668 11.0265 1.48345 10.8936C1.50022 10.7607 1.54351 10.6325 1.61076 10.5167C1.67802 10.4009 1.76786 10.2997 1.87495 10.2193L4.36195 8.22925L10.698 2.79825Z" fill="black"/>
</g>
</g>
</svg>
