<svg width="24" height="24" viewBox="0 0 24 24" fill="none" xmlns="http://www.w3.org/2000/svg">
<path id="Vector" d="M21.2321 10.7684V23.1795C21.2321 23.6326 20.8665 24 20.4156 24H0.816653C0.36564 24 0 23.6326 0 23.1795V3.48628C0 3.03316 0.36564 2.66576 0.816653 2.66576H13.1936C13.6446 2.66576 14.0102 3.03316 14.0102 3.48628C14.0102 3.93943 13.6446 4.30683 13.1936 4.30683H1.63324V22.3589H19.5989V10.7684C19.5989 10.3152 19.9645 9.94785 20.4156 9.94785C20.8665 9.94785 21.2321 10.3152 21.2321 10.7684ZM23.7608 3.75794L11.5263 16.0512C11.4091 16.1692 11.2588 16.2483 11.0954 16.2784L8.22655 16.804C8.17775 16.8129 8.12867 16.8173 8.08002 16.8173C7.86548 16.8173 7.65715 16.7321 7.50263 16.5769C7.31302 16.3866 7.2285 16.1145 7.27658 15.8497L7.79954 12.9668C7.8294 12.8025 7.90813 12.6515 8.02558 12.5337L20.2602 0.240392C20.4133 0.0865375 20.6211 0 20.8376 0C21.0541 0 21.2619 0.0865375 21.415 0.240392L23.7608 2.59763C24.0797 2.91796 24.0797 3.43761 23.7608 3.75794ZM22.0286 3.17779L20.8376 1.98103L9.36055 13.5129L9.09521 14.9767L10.5518 14.7098L22.0286 3.17779Z" fill="black"/>
</svg>
