<svg width="16" height="16" viewBox="0 0 16 16" fill="none" xmlns="http://www.w3.org/2000/svg">
<g id="phosphor icons / ArrowCircleRight/primary/default">
<path id="Vector (Stroke)" fill-rule="evenodd" clip-rule="evenodd" d="M8 2.5C4.96243 2.5 2.5 4.96243 2.5 8C2.5 11.0376 4.96243 13.5 8 13.5C11.0376 13.5 13.5 11.0376 13.5 8C13.5 4.96243 11.0376 2.5 8 2.5ZM1.5 8C1.5 4.41015 4.41015 1.5 8 1.5C11.5899 1.5 14.5 4.41015 14.5 8C14.5 11.5899 11.5899 14.5 8 14.5C4.41015 14.5 1.5 11.5899 1.5 8Z" fill="white"/>
<path id="Vector (Stroke)_2" fill-rule="evenodd" clip-rule="evenodd" d="M8.02731 5.52779C8.22257 5.33253 8.53915 5.33253 8.73441 5.52779L10.8532 7.64654C11.0484 7.84181 11.0484 8.15839 10.8532 8.35365L8.73441 10.4724C8.53915 10.6677 8.22257 10.6677 8.02731 10.4724C7.83204 10.2771 7.83204 9.96056 8.02731 9.76529L9.7925 8.0001L8.02731 6.2349C7.83204 6.03964 7.83204 5.72306 8.02731 5.52779Z" fill="white"/>
<path id="Vector (Stroke)_3" fill-rule="evenodd" clip-rule="evenodd" d="M5 8C5 7.72386 5.22386 7.5 5.5 7.5H10.5C10.7761 7.5 11 7.72386 11 8C11 8.27614 10.7761 8.5 10.5 8.5H5.5C5.22386 8.5 5 8.27614 5 8Z" fill="white"/>
</g>
</svg>
