<svg width="19" height="22" viewBox="0 0 19 22" fill="none" xmlns="http://www.w3.org/2000/svg">
<g id="Group">
<g id="Group_2">
<path id="Vector" d="M16.2569 4.65271L15.6542 19.3229C15.6314 19.878 15.1622 20.3333 14.6134 20.3333H4.09668C3.54771 20.3333 3.07858 19.877 3.05582 19.3229L2.45316 4.65271C2.4456 4.46878 2.29246 4.32588 2.11111 4.33355C1.92976 4.34121 1.78888 4.49653 1.79643 4.68047L2.3991 19.3507C2.43653 20.2619 3.1954 20.9999 4.09668 20.9999H14.6134C15.5142 20.9999 16.2735 20.2632 16.3109 19.3507L16.9136 4.68047C16.9212 4.49653 16.7803 4.34121 16.5989 4.33355C16.4176 4.32588 16.2644 4.46878 16.2569 4.65271Z" fill="#C73636" stroke="#C73636" stroke-width="0.4"/>
<path id="Vector_2" d="M9.02637 6.66683V18.0002C9.02637 18.1843 9.17351 18.3335 9.35501 18.3335C9.53652 18.3335 9.68366 18.1843 9.68366 18.0002V6.66683C9.68366 6.48273 9.53652 6.3335 9.35501 6.3335C9.17351 6.3335 9.02637 6.48273 9.02637 6.66683Z" fill="#C73636" stroke="#C73636" stroke-width="0.4"/>
<path id="Vector_3" d="M5.41152 6.67663L5.74017 18.01C5.7455 18.194 5.89691 18.3388 6.07834 18.3334C6.25976 18.3279 6.40251 18.1744 6.39718 17.9904L6.06853 6.65703C6.0632 6.47302 5.91179 6.32823 5.73036 6.33364C5.54894 6.33906 5.40619 6.49262 5.41152 6.67663Z" fill="#C73636" stroke="#C73636" stroke-width="0.4"/>
<path id="Vector_4" d="M12.6418 6.65703L12.3131 17.9904C12.3078 18.1744 12.4505 18.3279 12.632 18.3334C12.8134 18.3388 12.9648 18.194 12.9701 18.01L13.2988 6.67663C13.3041 6.49262 13.1614 6.33906 12.9799 6.33364C12.7985 6.32823 12.6471 6.47302 12.6418 6.65703Z" fill="#C73636" stroke="#C73636" stroke-width="0.4"/>
<path id="Vector_5" d="M1.13895 3.33317H17.5713C17.7528 3.33317 17.8999 3.18393 17.8999 2.99984C17.8999 2.81574 17.7528 2.6665 17.5713 2.6665H1.13895C0.957443 2.6665 0.810303 2.81574 0.810303 2.99984C0.810303 3.18393 0.957443 3.33317 1.13895 3.33317Z" fill="#C73636" stroke="#C73636" stroke-width="0.4"/>
<path id="Vector_6" d="M6.37371 3.1238L6.72545 2.23191C6.84404 1.93119 7.22934 1.66667 7.54748 1.66667H11.1626C11.4825 1.66667 11.8654 1.92955 11.9846 2.23191L12.3364 3.1238L12.9466 2.8762L12.5949 1.98432C12.3758 1.42885 11.7513 1 11.1626 1H7.54748C6.96059 1 6.33359 1.43048 6.11517 1.98432L5.76343 2.8762L6.37371 3.1238Z" fill="#C73636" stroke="#C73636" stroke-width="0.4"/>
</g>
</g>
</svg>
